<svg width="415" height="46" viewBox="0 0 415 46" fill="none" xmlns="http://www.w3.org/2000/svg">
<g clip-path="url(#clip0)">
<path d="M265 15.5H264.919C264.639 15.5027 264.368 15.5981 264.149 15.7714C263.929 15.9447 263.773 16.1861 263.706 16.4575C263.633 16.7218 263.476 16.955 263.258 17.1212C263.04 17.2874 262.774 17.3774 262.5 17.3774C262.226 17.3774 261.96 17.2874 261.742 17.1212C261.524 16.955 261.367 16.7218 261.294 16.4575C261.227 16.1861 261.071 15.9447 260.851 15.7714C260.632 15.5981 260.361 15.5027 260.081 15.5H260C259.172 15.501 258.377 15.8306 257.791 16.4164C257.206 17.0022 256.876 17.7965 256.875 18.625V28.625C256.875 29.1223 257.073 29.5992 257.424 29.9508C257.776 30.3025 258.253 30.5 258.75 30.5H260.081C260.361 30.4973 260.632 30.4019 260.851 30.2286C261.071 30.0553 261.227 29.8139 261.294 29.5425C261.367 29.2782 261.524 29.045 261.742 28.8788C261.96 28.7126 262.226 28.6226 262.5 28.6226C262.774 28.6226 263.04 28.7126 263.258 28.8788C263.476 29.045 263.633 29.2782 263.706 29.5425C263.773 29.8139 263.929 30.0553 264.149 30.2286C264.368 30.4019 264.639 30.4973 264.919 30.5H266.25C266.747 30.5 267.224 30.3025 267.576 29.9508C267.927 29.5992 268.125 29.1223 268.125 28.625V18.625C268.124 17.7965 267.794 17.0022 267.209 16.4164C266.623 15.8306 265.828 15.501 265 15.5V15.5ZM266.25 29.25L264.911 29.2106C264.764 28.6803 264.446 28.2132 264.007 27.8817C263.568 27.5503 263.031 27.3731 262.481 27.3776C261.931 27.3821 261.397 27.568 260.963 27.9065C260.529 28.2451 260.219 28.7173 260.081 29.25H258.75C258.584 29.25 258.425 29.1842 258.308 29.0669C258.191 28.9497 258.125 28.7908 258.125 28.625V26.125H259.375C259.541 26.125 259.7 26.0592 259.817 25.9419C259.934 25.8247 260 25.6658 260 25.5C260 25.3342 259.934 25.1753 259.817 25.0581C259.7 24.9408 259.541 24.875 259.375 24.875H258.125V18.625C258.125 18.1277 258.323 17.6508 258.674 17.2992C259.026 16.9475 259.503 16.75 260 16.75L260.089 16.7894C260.236 17.3165 260.551 17.7813 260.986 18.1127C261.421 18.4442 261.953 18.6241 262.5 18.625C263.054 18.6203 263.592 18.4346 264.031 18.0961C264.471 17.7576 264.787 17.285 264.933 16.75H265C265.497 16.75 265.974 16.9475 266.326 17.2992C266.677 17.6508 266.875 18.1277 266.875 18.625V24.875H265.625C265.459 24.875 265.3 24.9408 265.183 25.0581C265.066 25.1753 265 25.3342 265 25.5C265 25.6658 265.066 25.8247 265.183 25.9419C265.3 26.0592 265.459 26.125 265.625 26.125H266.875V28.625C266.875 28.7908 266.809 28.9497 266.692 29.0669C266.575 29.1842 266.416 29.25 266.25 29.25Z" fill="white"/>
<path d="M263.125 24.875H261.875C261.709 24.875 261.55 24.9408 261.433 25.0581C261.316 25.1753 261.25 25.3342 261.25 25.5C261.25 25.6658 261.316 25.8247 261.433 25.9419C261.55 26.0592 261.709 26.125 261.875 26.125H263.125C263.291 26.125 263.45 26.0592 263.567 25.9419C263.684 25.8247 263.75 25.6658 263.75 25.5C263.75 25.3342 263.684 25.1753 263.567 25.0581C263.45 24.9408 263.291 24.875 263.125 24.875Z" fill="white"/>
</g>
<path d="M284.204 21.0273C285.134 21.0273 285.877 21.3395 286.433 21.9639C286.993 22.5837 287.273 23.4017 287.273 24.418V24.5342C287.273 25.2314 287.139 25.8558 286.87 26.4072C286.601 26.9541 286.214 27.3802 285.708 27.6855C285.207 27.9863 284.628 28.1367 283.972 28.1367C282.978 28.1367 282.178 27.8063 281.572 27.1455C280.966 26.4801 280.663 25.5892 280.663 24.4727V23.8574C280.663 22.3034 280.95 21.0684 281.524 20.1523C282.103 19.2363 282.955 18.6781 284.081 18.4775C284.719 18.3636 285.15 18.2246 285.373 18.0605C285.596 17.8965 285.708 17.6709 285.708 17.3838H286.747C286.747 17.9535 286.617 18.3978 286.357 18.7168C286.102 19.0358 285.692 19.2614 285.127 19.3936L284.184 19.6055C283.432 19.7832 282.867 20.084 282.488 20.5078C282.115 20.9271 281.871 21.4876 281.757 22.1895C282.427 21.4147 283.243 21.0273 284.204 21.0273ZM283.958 22.0664C283.338 22.0664 282.846 22.276 282.481 22.6953C282.117 23.11 281.935 23.6865 281.935 24.4248V24.5342C281.935 25.3271 282.117 25.9561 282.481 26.4209C282.851 26.8812 283.347 27.1113 283.972 27.1113C284.601 27.1113 285.097 26.8789 285.462 26.4141C285.826 25.9492 286.009 25.2702 286.009 24.377C286.009 23.6797 285.824 23.1214 285.455 22.7021C285.09 22.2783 284.591 22.0664 283.958 22.0664ZM293.357 20.6035H294.622V28H293.357V22.6064L289.946 28H288.682V20.6035H289.946V26.0039L293.357 20.6035ZM302.716 20.6035V28H301.444V21.6494H298.929L298.778 24.418C298.696 25.6895 298.482 26.5986 298.136 27.1455C297.794 27.6924 297.249 27.9772 296.502 28H295.996V26.8857L296.358 26.8584C296.769 26.8128 297.062 26.5758 297.24 26.1475C297.418 25.7191 297.532 24.9261 297.582 23.7686L297.719 20.6035H302.716ZM307.815 28.1367C306.813 28.1367 305.997 27.8086 305.368 27.1523C304.739 26.4915 304.425 25.6097 304.425 24.5068V24.2744C304.425 23.5407 304.564 22.8867 304.842 22.3125C305.124 21.7337 305.516 21.2826 306.018 20.959C306.523 20.6309 307.07 20.4668 307.658 20.4668C308.62 20.4668 309.367 20.7835 309.9 21.417C310.434 22.0505 310.7 22.9574 310.7 24.1377V24.6641H305.689C305.708 25.3932 305.92 25.9834 306.325 26.4346C306.735 26.8812 307.255 27.1045 307.884 27.1045C308.33 27.1045 308.709 27.0133 309.019 26.8311C309.328 26.6488 309.6 26.4072 309.832 26.1064L310.604 26.708C309.985 27.6605 309.055 28.1367 307.815 28.1367ZM307.658 21.5059C307.148 21.5059 306.719 21.6927 306.373 22.0664C306.027 22.4355 305.812 22.9551 305.73 23.625H309.436V23.5293C309.399 22.8867 309.226 22.39 308.916 22.0391C308.606 21.6836 308.187 21.5059 307.658 21.5059ZM317.584 21.6289H315.103V28H313.838V21.6289H311.404V20.6035H317.584V21.6289ZM320.195 23.1533H322.116C322.955 23.1624 323.618 23.3812 324.105 23.8096C324.593 24.238 324.837 24.819 324.837 25.5527C324.837 26.291 324.586 26.8835 324.085 27.3301C323.584 27.7767 322.909 28 322.062 28H318.931V20.6035H320.195V23.1533ZM327.476 28H326.204V20.6035H327.476V28ZM320.195 24.1855V26.9678H322.075C322.549 26.9678 322.916 26.847 323.176 26.6055C323.436 26.3594 323.565 26.0244 323.565 25.6006C323.565 25.1904 323.438 24.8555 323.183 24.5957C322.932 24.3314 322.579 24.1947 322.123 24.1855H320.195ZM339.199 28H337.935V24.8418H334.537V28H333.266V20.6035H334.537V23.8096H337.935V20.6035H339.199V28ZM345.803 28C345.73 27.8542 345.671 27.5944 345.625 27.2207C345.037 27.8314 344.335 28.1367 343.52 28.1367C342.79 28.1367 342.191 27.9316 341.722 27.5215C341.257 27.1068 341.024 26.5827 341.024 25.9492C341.024 25.179 341.316 24.582 341.899 24.1582C342.487 23.7298 343.312 23.5156 344.374 23.5156H345.604V22.9346C345.604 22.4925 345.472 22.1416 345.208 21.8818C344.944 21.6175 344.554 21.4854 344.039 21.4854C343.588 21.4854 343.21 21.5993 342.904 21.8271C342.599 22.055 342.446 22.3307 342.446 22.6543H341.175C341.175 22.2852 341.305 21.9297 341.564 21.5879C341.829 21.2415 342.184 20.9681 342.631 20.7676C343.082 20.5671 343.576 20.4668 344.114 20.4668C344.966 20.4668 345.634 20.681 346.117 21.1094C346.6 21.5332 346.851 22.1188 346.869 22.8662V26.2705C346.869 26.9495 346.956 27.4896 347.129 27.8906V28H345.803ZM343.704 27.0361C344.101 27.0361 344.477 26.9336 344.832 26.7285C345.188 26.5234 345.445 26.2568 345.604 25.9287V24.4111H344.613C343.064 24.4111 342.289 24.8646 342.289 25.7715C342.289 26.168 342.421 26.4779 342.686 26.7012C342.95 26.9245 343.289 27.0361 343.704 27.0361ZM358.374 28H357.109V21.6494H353.705V28H352.434V20.6035H358.374V28ZM366.652 24.3838C366.652 25.5094 366.395 26.4163 365.88 27.1045C365.365 27.7926 364.668 28.1367 363.788 28.1367C362.89 28.1367 362.184 27.8519 361.669 27.2822V30.8438H360.404V20.6035H361.56L361.621 21.4238C362.136 20.7858 362.852 20.4668 363.768 20.4668C364.656 20.4668 365.358 20.8018 365.873 21.4717C366.393 22.1416 366.652 23.0736 366.652 24.2676V24.3838ZM365.388 24.2402C365.388 23.4062 365.21 22.7477 364.854 22.2646C364.499 21.7816 364.011 21.54 363.392 21.54C362.626 21.54 362.052 21.8796 361.669 22.5586V26.0928C362.047 26.7673 362.626 27.1045 363.405 27.1045C364.011 27.1045 364.492 26.8652 364.848 26.3867C365.208 25.9036 365.388 25.1882 365.388 24.2402ZM371.335 28.1367C370.332 28.1367 369.517 27.8086 368.888 27.1523C368.259 26.4915 367.944 25.6097 367.944 24.5068V24.2744C367.944 23.5407 368.083 22.8867 368.361 22.3125C368.644 21.7337 369.036 21.2826 369.537 20.959C370.043 20.6309 370.59 20.4668 371.178 20.4668C372.139 20.4668 372.887 20.7835 373.42 21.417C373.953 22.0505 374.22 22.9574 374.22 24.1377V24.6641H369.209C369.227 25.3932 369.439 25.9834 369.845 26.4346C370.255 26.8812 370.774 27.1045 371.403 27.1045C371.85 27.1045 372.228 27.0133 372.538 26.8311C372.848 26.6488 373.119 26.4072 373.352 26.1064L374.124 26.708C373.504 27.6605 372.575 28.1367 371.335 28.1367ZM371.178 21.5059C370.667 21.5059 370.239 21.6927 369.893 22.0664C369.546 22.4355 369.332 22.9551 369.25 23.625H372.955V23.5293C372.919 22.8867 372.745 22.39 372.436 22.0391C372.126 21.6836 371.706 21.5059 371.178 21.5059ZM379.948 26.3252L382.464 20.6035H384.043V28H382.778V22.6201L380.386 28H379.511L377.07 22.5039V28H375.806V20.6035H377.446L379.948 26.3252ZM387.461 23.1533H389.382C390.22 23.1624 390.883 23.3812 391.371 23.8096C391.859 24.238 392.103 24.819 392.103 25.5527C392.103 26.291 391.852 26.8835 391.351 27.3301C390.849 27.7767 390.175 28 389.327 28H386.196V20.6035H387.461V23.1533ZM387.461 24.1855V26.9678H389.341C389.815 26.9678 390.182 26.847 390.441 26.6055C390.701 26.3594 390.831 26.0244 390.831 25.6006C390.831 25.1904 390.703 24.8555 390.448 24.5957C390.198 24.3314 389.844 24.1947 389.389 24.1855H387.461ZM396.751 28.1367C395.748 28.1367 394.933 27.8086 394.304 27.1523C393.675 26.4915 393.36 25.6097 393.36 24.5068V24.2744C393.36 23.5407 393.499 22.8867 393.777 22.3125C394.06 21.7337 394.452 21.2826 394.953 20.959C395.459 20.6309 396.006 20.4668 396.594 20.4668C397.555 20.4668 398.303 20.7835 398.836 21.417C399.369 22.0505 399.636 22.9574 399.636 24.1377V24.6641H394.625C394.643 25.3932 394.855 25.9834 395.261 26.4346C395.671 26.8812 396.19 27.1045 396.819 27.1045C397.266 27.1045 397.644 27.0133 397.954 26.8311C398.264 26.6488 398.535 26.4072 398.768 26.1064L399.54 26.708C398.92 27.6605 397.991 28.1367 396.751 28.1367ZM396.594 21.5059C396.083 21.5059 395.655 21.6927 395.309 22.0664C394.962 22.4355 394.748 22.9551 394.666 23.625H398.371V23.5293C398.335 22.8867 398.161 22.39 397.852 22.0391C397.542 21.6836 397.122 21.5059 396.594 21.5059ZM407.354 24.3838C407.354 25.5094 407.096 26.4163 406.581 27.1045C406.066 27.7926 405.369 28.1367 404.489 28.1367C403.591 28.1367 402.885 27.8519 402.37 27.2822V30.8438H401.105V20.6035H402.261L402.322 21.4238C402.837 20.7858 403.553 20.4668 404.469 20.4668C405.357 20.4668 406.059 20.8018 406.574 21.4717C407.094 22.1416 407.354 23.0736 407.354 24.2676V24.3838ZM406.089 24.2402C406.089 23.4062 405.911 22.7477 405.556 22.2646C405.2 21.7816 404.713 21.54 404.093 21.54C403.327 21.54 402.753 21.8796 402.37 22.5586V26.0928C402.748 26.7673 403.327 27.1045 404.106 27.1045C404.713 27.1045 405.193 26.8652 405.549 26.3867C405.909 25.9036 406.089 25.1882 406.089 24.2402ZM411.305 26.1475L413.027 20.6035H414.381L411.407 29.1416C410.947 30.3721 410.215 30.9873 409.213 30.9873L408.974 30.9668L408.502 30.8779V29.8525L408.844 29.8799C409.272 29.8799 409.605 29.7933 409.842 29.6201C410.083 29.4469 410.282 29.1302 410.437 28.6699L410.717 27.918L408.078 20.6035H409.459L411.305 26.1475Z" fill="white"/>
<rect width="204" height="46" rx="5" fill="white"/>
<g clip-path="url(#clip1)">
<path d="M42.8088 20.48L36.8463 16.105C36.3806 15.764 35.8295 15.5586 35.2542 15.5117C34.6789 15.4647 34.1019 15.578 33.5871 15.839C33.0722 16.1 32.6397 16.4984 32.3375 16.9902C32.0353 17.482 31.8752 18.0478 31.875 18.625V27.375C31.8751 27.9525 32.0352 28.5186 32.3375 29.0106C32.6399 29.5026 33.0726 29.9012 33.5878 30.1621C34.1029 30.4231 34.6803 30.5362 35.2558 30.489C35.8313 30.4417 36.3825 30.2359 36.8481 29.8944L42.8106 25.5194C43.2064 25.2291 43.5283 24.8497 43.7501 24.4119C43.972 23.9741 44.0876 23.4902 44.0876 22.9994C44.0876 22.5086 43.972 22.0247 43.7501 21.5868C43.5283 21.149 43.2064 20.7696 42.8106 20.4794L42.8088 20.48ZM42.0687 24.5113L36.1063 28.8863C35.8269 29.0904 35.4965 29.2133 35.1516 29.2412C34.8067 29.2692 34.4608 29.2012 34.1522 29.0448C33.8436 28.8883 33.5843 28.6495 33.403 28.3548C33.2217 28.0601 33.1255 27.721 33.125 27.375V18.625C33.1215 18.2783 33.2159 17.9377 33.3974 17.6423C33.5788 17.3469 33.8399 17.1087 34.1506 16.955C34.4149 16.8206 34.7072 16.7503 35.0037 16.75C35.4012 16.7515 35.7876 16.8806 36.1063 17.1181L42.0687 21.4931C42.3059 21.6673 42.4988 21.8949 42.6317 22.1574C42.7646 22.42 42.8339 22.7101 42.8339 23.0044C42.8339 23.2987 42.7646 23.5888 42.6317 23.8513C42.4988 24.1139 42.3059 24.3414 42.0687 24.5156V24.5113Z" fill="#8D0019"/>
</g>
<path d="M58.9238 27.1045C59.375 27.1045 59.7692 26.9678 60.1064 26.6943C60.4437 26.4209 60.6305 26.0791 60.667 25.6689H61.8633C61.8405 26.0928 61.6947 26.4961 61.4258 26.8789C61.1569 27.2617 60.7969 27.5671 60.3457 27.7949C59.8991 28.0228 59.4251 28.1367 58.9238 28.1367C57.9167 28.1367 57.1146 27.8018 56.5176 27.1318C55.9251 26.4574 55.6289 25.5368 55.6289 24.3701V24.1582C55.6289 23.4382 55.7611 22.7979 56.0254 22.2373C56.2897 21.6768 56.668 21.2415 57.1602 20.9316C57.6569 20.6217 58.2425 20.4668 58.917 20.4668C59.7464 20.4668 60.4346 20.7152 60.9814 21.2119C61.5329 21.7087 61.8268 22.3535 61.8633 23.1465H60.667C60.6305 22.668 60.4482 22.276 60.1201 21.9707C59.7965 21.6608 59.3955 21.5059 58.917 21.5059C58.2744 21.5059 57.7754 21.7383 57.4199 22.2031C57.069 22.6634 56.8936 23.3311 56.8936 24.2061V24.4453C56.8936 25.2975 57.069 25.9538 57.4199 26.4141C57.7708 26.8743 58.2721 27.1045 58.9238 27.1045ZM67.5439 26.3252L70.0596 20.6035H71.6387V28H70.374V22.6201L67.9814 28H67.1064L64.666 22.5039V28H63.4014V20.6035H65.042L67.5439 26.3252ZM73.3408 24.2334C73.3408 23.5088 73.4821 22.8571 73.7646 22.2783C74.0518 21.6995 74.4482 21.2529 74.9541 20.9385C75.4645 20.624 76.0456 20.4668 76.6973 20.4668C77.7044 20.4668 78.5179 20.8154 79.1377 21.5127C79.762 22.21 80.0742 23.1374 80.0742 24.2949V24.3838C80.0742 25.1038 79.9352 25.751 79.6572 26.3252C79.3838 26.8949 78.9896 27.3392 78.4746 27.6582C77.9642 27.9772 77.3763 28.1367 76.7109 28.1367C75.7083 28.1367 74.8949 27.7881 74.2705 27.0908C73.6507 26.3936 73.3408 25.4707 73.3408 24.3223V24.2334ZM74.6123 24.3838C74.6123 25.2041 74.8014 25.8626 75.1797 26.3594C75.5625 26.8561 76.0729 27.1045 76.7109 27.1045C77.3535 27.1045 77.8639 26.8538 78.2422 26.3525C78.6204 25.8467 78.8096 25.1403 78.8096 24.2334C78.8096 23.4222 78.6159 22.766 78.2285 22.2646C77.8457 21.7588 77.3353 21.5059 76.6973 21.5059C76.0729 21.5059 75.5693 21.7542 75.1865 22.251C74.8037 22.7477 74.6123 23.4587 74.6123 24.3838ZM87.0059 21.6289H84.5244V28H83.2598V21.6289H80.8262V20.6035H87.0059V21.6289ZM94.4844 24.3838C94.4844 25.5094 94.2269 26.4163 93.7119 27.1045C93.1969 27.7926 92.4997 28.1367 91.6201 28.1367C90.7223 28.1367 90.016 27.8519 89.501 27.2822V30.8438H88.2363V20.6035H89.3916L89.4531 21.4238C89.9681 20.7858 90.6836 20.4668 91.5996 20.4668C92.4883 20.4668 93.1901 20.8018 93.7051 21.4717C94.2246 22.1416 94.4844 23.0736 94.4844 24.2676V24.3838ZM93.2197 24.2402C93.2197 23.4062 93.042 22.7477 92.6865 22.2646C92.3311 21.7816 91.8434 21.54 91.2236 21.54C90.458 21.54 89.8838 21.8796 89.501 22.5586V26.0928C89.8792 26.7673 90.458 27.1045 91.2373 27.1045C91.8434 27.1045 92.3242 26.8652 92.6797 26.3867C93.0397 25.9036 93.2197 25.1882 93.2197 24.2402ZM99.167 28.1367C98.1644 28.1367 97.3486 27.8086 96.7197 27.1523C96.0908 26.4915 95.7764 25.6097 95.7764 24.5068V24.2744C95.7764 23.5407 95.9154 22.8867 96.1934 22.3125C96.4759 21.7337 96.8678 21.2826 97.3691 20.959C97.875 20.6309 98.4219 20.4668 99.0098 20.4668C99.9714 20.4668 100.719 20.7835 101.252 21.417C101.785 22.0505 102.052 22.9574 102.052 24.1377V24.6641H97.041C97.0592 25.3932 97.2712 25.9834 97.6768 26.4346C98.0869 26.8812 98.6064 27.1045 99.2354 27.1045C99.682 27.1045 100.06 27.0133 100.37 26.8311C100.68 26.6488 100.951 26.4072 101.184 26.1064L101.956 26.708C101.336 27.6605 100.407 28.1367 99.167 28.1367ZM99.0098 21.5059C98.4993 21.5059 98.071 21.6927 97.7246 22.0664C97.3783 22.4355 97.1641 22.9551 97.082 23.625H100.787V23.5293C100.751 22.8867 100.577 22.39 100.268 22.0391C99.9577 21.6836 99.5384 21.5059 99.0098 21.5059ZM108.936 21.6289H106.454V28H105.189V21.6289H102.756V20.6035H108.936V21.6289ZM111.547 23.1533H113.468C114.306 23.1624 114.969 23.3812 115.457 23.8096C115.945 24.238 116.188 24.819 116.188 25.5527C116.188 26.291 115.938 26.8835 115.437 27.3301C114.935 27.7767 114.261 28 113.413 28H110.282V20.6035H111.547V23.1533ZM111.547 24.1855V26.9678H113.427C113.901 26.9678 114.268 26.847 114.527 26.6055C114.787 26.3594 114.917 26.0244 114.917 25.6006C114.917 25.1904 114.789 24.8555 114.534 24.5957C114.284 24.3314 113.93 24.1947 113.475 24.1855H111.547ZM126.736 21.6289H124.255V28H122.99V21.6289H120.557V20.6035H126.736V21.6289ZM134.215 24.3838C134.215 25.5094 133.957 26.4163 133.442 27.1045C132.927 27.7926 132.23 28.1367 131.351 28.1367C130.453 28.1367 129.746 27.8519 129.231 27.2822V30.8438H127.967V20.6035H129.122L129.184 21.4238C129.699 20.7858 130.414 20.4668 131.33 20.4668C132.219 20.4668 132.921 20.8018 133.436 21.4717C133.955 22.1416 134.215 23.0736 134.215 24.2676V24.3838ZM132.95 24.2402C132.95 23.4062 132.772 22.7477 132.417 22.2646C132.062 21.7816 131.574 21.54 130.954 21.54C130.188 21.54 129.614 21.8796 129.231 22.5586V26.0928C129.61 26.7673 130.188 27.1045 130.968 27.1045C131.574 27.1045 132.055 26.8652 132.41 26.3867C132.77 25.9036 132.95 25.1882 132.95 24.2402ZM138.897 28.1367C137.895 28.1367 137.079 27.8086 136.45 27.1523C135.821 26.4915 135.507 25.6097 135.507 24.5068V24.2744C135.507 23.5407 135.646 22.8867 135.924 22.3125C136.206 21.7337 136.598 21.2826 137.1 20.959C137.605 20.6309 138.152 20.4668 138.74 20.4668C139.702 20.4668 140.449 20.7835 140.982 21.417C141.516 22.0505 141.782 22.9574 141.782 24.1377V24.6641H136.771C136.79 25.3932 137.002 25.9834 137.407 26.4346C137.817 26.8812 138.337 27.1045 138.966 27.1045C139.412 27.1045 139.791 27.0133 140.101 26.8311C140.41 26.6488 140.682 26.4072 140.914 26.1064L141.687 26.708C141.067 27.6605 140.137 28.1367 138.897 28.1367ZM138.74 21.5059C138.23 21.5059 137.801 21.6927 137.455 22.0664C137.109 22.4355 136.895 22.9551 136.812 23.625H140.518V23.5293C140.481 22.8867 140.308 22.39 139.998 22.0391C139.688 21.6836 139.269 21.5059 138.74 21.5059ZM148.037 20.6035H149.302V28H148.037V22.6064L144.626 28H143.361V20.6035H144.626V26.0039L148.037 20.6035ZM148.379 17.9102C148.379 18.4616 148.19 18.9059 147.812 19.2432C147.438 19.5758 146.946 19.7422 146.335 19.7422C145.724 19.7422 145.23 19.5736 144.852 19.2363C144.473 18.8991 144.284 18.457 144.284 17.9102H145.316C145.316 18.2292 145.403 18.4798 145.576 18.6621C145.749 18.8398 146.002 18.9287 146.335 18.9287C146.654 18.9287 146.902 18.8398 147.08 18.6621C147.262 18.4844 147.354 18.2337 147.354 17.9102H148.379ZM157.396 20.6035V28H156.124V21.6494H153.608L153.458 24.418C153.376 25.6895 153.162 26.5986 152.815 27.1455C152.474 27.6924 151.929 27.9772 151.182 28H150.676V26.8857L151.038 26.8584C151.448 26.8128 151.742 26.5758 151.92 26.1475C152.098 25.7191 152.212 24.9261 152.262 23.7686L152.398 20.6035H157.396ZM162.495 28.1367C161.493 28.1367 160.677 27.8086 160.048 27.1523C159.419 26.4915 159.104 25.6097 159.104 24.5068V24.2744C159.104 23.5407 159.243 22.8867 159.521 22.3125C159.804 21.7337 160.196 21.2826 160.697 20.959C161.203 20.6309 161.75 20.4668 162.338 20.4668C163.299 20.4668 164.047 20.7835 164.58 21.417C165.113 22.0505 165.38 22.9574 165.38 24.1377V24.6641H160.369C160.387 25.3932 160.599 25.9834 161.005 26.4346C161.415 26.8812 161.935 27.1045 162.563 27.1045C163.01 27.1045 163.388 27.0133 163.698 26.8311C164.008 26.6488 164.279 26.4072 164.512 26.1064L165.284 26.708C164.664 27.6605 163.735 28.1367 162.495 28.1367ZM162.338 21.5059C161.827 21.5059 161.399 21.6927 161.053 22.0664C160.706 22.4355 160.492 22.9551 160.41 23.625H164.115V23.5293C164.079 22.8867 163.906 22.39 163.596 22.0391C163.286 21.6836 162.867 21.5059 162.338 21.5059ZM173.098 24.3838C173.098 25.5094 172.84 26.4163 172.325 27.1045C171.81 27.7926 171.113 28.1367 170.233 28.1367C169.336 28.1367 168.629 27.8519 168.114 27.2822V30.8438H166.85V20.6035H168.005L168.066 21.4238C168.581 20.7858 169.297 20.4668 170.213 20.4668C171.102 20.4668 171.803 20.8018 172.318 21.4717C172.838 22.1416 173.098 23.0736 173.098 24.2676V24.3838ZM171.833 24.2402C171.833 23.4062 171.655 22.7477 171.3 22.2646C170.944 21.7816 170.457 21.54 169.837 21.54C169.071 21.54 168.497 21.8796 168.114 22.5586V26.0928C168.493 26.7673 169.071 27.1045 169.851 27.1045C170.457 27.1045 170.938 26.8652 171.293 26.3867C171.653 25.9036 171.833 25.1882 171.833 24.2402Z" fill="#8D0019"/>
<defs>
<clipPath id="clip0">
<rect width="15" height="15" fill="white" transform="translate(255 15.5)"/>
</clipPath>
<clipPath id="clip1">
<rect width="15" height="15" fill="white" transform="translate(30 15.5)"/>
</clipPath>
</defs>
</svg>
